<svg width="70" height="70" viewBox="0 0 70 70" fill="none" xmlns="http://www.w3.org/2000/svg">
<path d="M56.875 10.9375H13.125C11.9169 10.9375 10.9375 11.9169 10.9375 13.125V56.875C10.9375 58.0831 11.9169 59.0625 13.125 59.0625H56.875C58.0831 59.0625 59.0625 58.0831 59.0625 56.875V13.125C59.0625 11.9169 58.0831 10.9375 56.875 10.9375Z" stroke="#355DFB" stroke-width="1.5" stroke-linecap="round" stroke-linejoin="round"/>
<path d="M48.125 6.5625V15.3125" stroke="#355DFB" stroke-width="1.5" stroke-linecap="round" stroke-linejoin="round"/>
<path d="M21.875 6.5625V15.3125" stroke="#355DFB" stroke-width="1.5" stroke-linecap="round" stroke-linejoin="round"/>
<path d="M10.9375 24.0625H59.0625" stroke="#355DFB" stroke-width="1.5" stroke-linecap="round" stroke-linejoin="round"/>
<path d="M25.1562 34.9993H32.8125L28.4375 40.468C29.1569 40.468 29.8651 40.6454 30.4996 40.9845C31.134 41.3235 31.6751 41.8138 32.0748 42.4118C32.4746 43.0099 32.7207 43.6973 32.7913 44.4132C32.862 45.1291 32.7551 45.8513 32.48 46.516C32.2049 47.1807 31.7702 47.7673 31.2143 48.2239C30.6584 48.6805 29.9985 48.9929 29.293 49.1336C28.5875 49.2742 27.8582 49.2388 27.1697 49.0303C26.4812 48.8219 25.8548 48.4468 25.3458 47.9385" stroke="#355DFB" stroke-width="1.5" stroke-linecap="round" stroke-linejoin="round"/>
<path d="M39.375 38.2805L43.75 34.9993V49.218" stroke="#355DFB" stroke-width="1.5" stroke-linecap="round" stroke-linejoin="round"/>
</svg>
