<svg width="70" height="70" viewBox="0 0 70 70" fill="none" xmlns="http://www.w3.org/2000/svg">
<path d="M35 35V8.75" stroke="#355DFB" stroke-linecap="round" stroke-linejoin="round"/>
<path d="M57.7339 21.875L12.2676 48.125" stroke="#355DFB" stroke-linecap="round" stroke-linejoin="round"/>
<path d="M9.18773 39.7988C8.0512 33.6482 9.14469 27.2938 12.2718 21.8768C15.399 16.4599 20.3549 12.3353 26.2496 10.2437V29.9481L9.18773 39.7988Z" stroke="#355DFB" stroke-linecap="round" stroke-linejoin="round"/>
<path d="M34.9994 8.75C39.5984 8.75085 44.1165 9.95998 48.1012 12.2563C52.086 14.5526 55.3975 17.8556 57.7041 21.8343C60.0108 25.8131 61.2316 30.3281 61.2444 34.9271C61.2572 39.5261 60.0614 44.0478 57.7769 48.0393C55.4924 52.0308 52.1993 55.3521 48.2274 57.6705C44.2555 59.989 39.7442 61.2232 35.1452 61.2496C30.5462 61.276 26.021 60.0936 22.0228 57.821C18.0245 55.5483 14.6935 52.265 12.3633 48.3" stroke="#355DFB" stroke-linecap="round" stroke-linejoin="round"/>
</svg>
