<svg width="63" height="63" viewBox="0 0 63 63" fill="none" xmlns="http://www.w3.org/2000/svg">
<path opacity="0.2" d="M49.8111 40.38C44.5406 50.2733 34.6417 54.0962 32.1048 54.9373C31.7131 55.0721 31.2876 55.0721 30.8959 54.9373C28.359 54.0962 18.4599 50.2732 13.1895 40.3798L13.1902 40.3795L31.5004 27.5625L49.8102 40.3795L49.8111 40.38Z" fill="#355DFB"/>
<path d="M9.84375 26.25V11.8125C9.84375 11.2904 10.0512 10.7896 10.4204 10.4204C10.7896 10.0512 11.2904 9.84375 11.8125 9.84375H51.1875C51.7096 9.84375 52.2104 10.0512 52.5796 10.4204C52.9488 10.7896 53.1562 11.2904 53.1562 11.8125V26.25C53.1562 46.9256 35.6083 53.7756 32.1045 54.9373C31.7128 55.0721 31.2872 55.0721 30.8955 54.9373C27.3917 53.7756 9.84375 46.9256 9.84375 26.25Z" stroke="#355DFB" stroke-linecap="round" stroke-linejoin="round"/>
<path d="M49.8094 40.3796L31.4996 27.5625L13.1895 40.3796" stroke="#355DFB" stroke-linecap="round" stroke-linejoin="round"/>
</svg>
