<svg width="63" height="64" viewBox="0 0 63 64" fill="none" xmlns="http://www.w3.org/2000/svg">
<path opacity="0.2" d="M23.1477 46.1422C20.3635 54.6275 9.22656 54.6275 9.22656 54.6275C9.22656 54.6275 9.22656 43.3138 17.5793 40.4854L23.1477 46.1422Z" fill="#355DFB"/>
<path opacity="0.2" d="M45.4212 29.1714V45.3135C45.4212 45.5762 45.3702 45.8362 45.2713 46.0789C45.1724 46.3215 45.0273 46.542 44.8445 46.7277L36.8854 54.8132C36.6335 55.0691 36.3178 55.2508 35.9722 55.3389C35.6265 55.427 35.2638 55.418 34.9228 55.3131C34.5817 55.2082 34.2751 55.0113 34.0356 54.7432C33.7961 54.4752 33.6327 54.1462 33.5628 53.7912L31.5 43.3135L45.4212 29.1714Z" fill="#355DFB"/>
<path opacity="0.2" d="M34.2846 17.8579H18.3947C18.1361 17.8579 17.8801 17.9096 17.6412 18.0102C17.4024 18.1107 17.1854 18.258 17.0025 18.4437L9.04343 26.5291C8.79146 26.7851 8.6126 27.1058 8.52592 27.4569C8.43925 27.808 8.44801 28.1765 8.55127 28.5229C8.65454 28.8694 8.84843 29.1809 9.11227 29.4242C9.37612 29.6675 9.70002 29.8335 10.0494 29.9045L20.3634 32L34.2846 17.8579Z" fill="#355DFB"/>
<path d="M23.1477 46.1422C20.3635 54.6275 9.22656 54.6275 9.22656 54.6275C9.22656 54.6275 9.22656 43.3138 17.5793 40.4854" stroke="#355DFB" stroke-linecap="round" stroke-linejoin="round"/>
<path d="M48.2056 26.343L31.5002 43.3136L20.3633 31.9999L37.0687 15.0293C43.3943 8.60329 49.7199 8.66597 52.4176 9.07486C52.833 9.13776 53.2175 9.33454 53.5145 9.63621C53.8114 9.93788 54.0051 10.3285 54.067 10.7504C54.4695 13.491 54.5312 19.917 48.2056 26.343Z" stroke="#355DFB" stroke-linecap="round" stroke-linejoin="round"/>
<path d="M45.4212 29.1714V45.3135C45.4212 45.5762 45.3702 45.8362 45.2713 46.0789C45.1724 46.3215 45.0273 46.542 44.8445 46.7277L36.8854 54.8132C36.6335 55.0691 36.3178 55.2508 35.9722 55.3389C35.6265 55.427 35.2638 55.418 34.9228 55.3131C34.5817 55.2082 34.2751 55.0113 34.0356 54.7432C33.7961 54.4752 33.6327 54.1462 33.5628 53.7912L31.5 43.3135" stroke="#355DFB" stroke-linecap="round" stroke-linejoin="round"/>
<path d="M34.2846 17.8579H18.3947C18.1361 17.8579 17.8801 17.9096 17.6412 18.0102C17.4024 18.1107 17.1854 18.258 17.0025 18.4437L9.04343 26.5291C8.79146 26.7851 8.6126 27.1058 8.52592 27.4569C8.43925 27.808 8.44801 28.1765 8.55127 28.5229C8.65454 28.8694 8.84843 29.1809 9.11227 29.4242C9.37612 29.6675 9.70002 29.8335 10.0494 29.9045L20.3634 32" stroke="#355DFB" stroke-linecap="round" stroke-linejoin="round"/>
</svg>
