<svg width="63" height="63" viewBox="0 0 63 63" fill="none" xmlns="http://www.w3.org/2000/svg">
<path opacity="0.2" d="M9.84375 47.25C9.84375 48.2943 10.2586 49.2958 10.997 50.0342C11.7354 50.7727 12.737 51.1875 13.7812 51.1875H53.1562C53.6784 51.1875 54.1792 50.9801 54.5484 50.6109C54.9176 50.2417 55.125 49.7409 55.125 49.2188V21.6562C55.125 21.1341 54.9176 20.6333 54.5484 20.2641C54.1792 19.8949 53.6784 19.6875 53.1562 19.6875H13.7812C12.737 19.6875 11.7354 19.2727 10.997 18.5342C10.2586 17.7958 9.84375 16.7943 9.84375 15.75V47.25Z" fill="#355DFB"/>
<path d="M9.84375 15.75V47.25C9.84375 48.2943 10.2586 49.2958 10.997 50.0342C11.7354 50.7727 12.737 51.1875 13.7812 51.1875H53.1562C53.6784 51.1875 54.1792 50.9801 54.5484 50.6109C54.9176 50.2417 55.125 49.7409 55.125 49.2188V21.6562C55.125 21.1341 54.9176 20.6333 54.5484 20.2641C54.1792 19.8949 53.6784 19.6875 53.1562 19.6875H13.7812C12.737 19.6875 11.7354 19.2727 10.997 18.5342C10.2586 17.7958 9.84375 16.7943 9.84375 15.75ZM9.84375 15.75C9.84375 14.7057 10.2586 13.7042 10.997 12.9658C11.7354 12.2273 12.737 11.8125 13.7812 11.8125H47.25" stroke="#355DFB" stroke-linecap="round" stroke-linejoin="round"/>
<path d="M44.2969 38.3906C45.9278 38.3906 47.25 37.0685 47.25 35.4375C47.25 33.8065 45.9278 32.4844 44.2969 32.4844C42.6659 32.4844 41.3438 33.8065 41.3438 35.4375C41.3438 37.0685 42.6659 38.3906 44.2969 38.3906Z" stroke="#355DFB" stroke-linecap="round" stroke-linejoin="round"/>
</svg>
