<svg width="63" height="63" viewBox="0 0 63 63" fill="none" xmlns="http://www.w3.org/2000/svg">
<path opacity="0.2" d="M21.6562 39.375C28.7238 39.375 34.4531 33.6456 34.4531 26.5781C34.4531 19.5106 28.7238 13.7812 21.6562 13.7812C14.5887 13.7812 8.85938 19.5106 8.85938 26.5781C8.85938 33.6456 14.5887 39.375 21.6562 39.375Z" fill="#355DFB"/>
<path d="M21.6562 39.375C28.7238 39.375 34.4531 33.6456 34.4531 26.5781C34.4531 19.5106 28.7238 13.7812 21.6562 13.7812C14.5887 13.7812 8.85938 19.5106 8.85938 26.5781C8.85938 33.6456 14.5887 39.375 21.6562 39.375Z" stroke="#355DFB" stroke-miterlimit="10"/>
<path d="M38.2461 14.2579C40.0062 13.762 41.8522 13.649 43.6596 13.9266C45.4671 14.2042 47.194 14.8659 48.7242 15.8671C50.2544 16.8683 51.5523 18.1858 52.5304 19.7309C53.5086 21.2759 54.1443 23.0126 54.3947 24.824C54.6451 26.6355 54.5044 28.4795 53.9821 30.232C53.4599 31.9844 52.5681 33.6046 51.3669 34.9834C50.1658 36.3623 48.6831 37.4677 47.0187 38.2252C45.3544 38.9827 43.547 39.3748 41.7184 39.375" stroke="#355DFB" stroke-linecap="round" stroke-linejoin="round"/>
<path d="M3.93652 48.5781C5.93513 45.7352 8.58841 43.4149 11.6724 41.8132C14.7563 40.2114 18.1804 39.3751 21.6555 39.375C25.1306 39.3749 28.5547 40.2109 31.6388 41.8124C34.7228 43.4139 37.3763 45.734 39.3751 48.5767" stroke="#355DFB" stroke-linecap="round" stroke-linejoin="round"/>
<path d="M41.7188 39.375C45.1942 39.3725 48.619 40.2075 51.7034 41.8092C54.7877 43.411 57.4406 45.7323 59.4376 48.5767" stroke="#355DFB" stroke-linecap="round" stroke-linejoin="round"/>
</svg>
