<svg width="90" height="90" viewBox="0 0 90 90" fill="none" xmlns="http://www.w3.org/2000/svg">
<path opacity="0.2" d="M73.9162 12.6134L8.41035 31.0894C7.85926 31.2449 7.36875 31.5648 7.00436 32.0065C6.63997 32.4482 6.41907 32.9905 6.37118 33.5611C6.3233 34.1317 6.4507 34.7033 6.73637 35.1995C7.02204 35.6958 7.45237 36.093 7.96984 36.3381L38.0674 50.5948C38.6544 50.8729 39.1271 51.3456 39.4052 51.9326L53.6619 82.0301C53.907 82.5476 54.3042 82.9779 54.8005 83.2636C55.2967 83.5493 55.8683 83.6767 56.4389 83.6288C57.0095 83.5809 57.5518 83.36 57.9935 82.9956C58.4352 82.6312 58.7551 82.1407 58.9105 81.5896L77.3866 16.0838C77.5223 15.6026 77.5273 15.094 77.401 14.6102C77.2748 14.1265 77.0219 13.6851 76.6684 13.3316C76.3149 12.9781 75.8735 12.7252 75.3898 12.5989C74.906 12.4727 74.3974 12.4777 73.9162 12.6134Z" fill="#355DFB"/>
<path d="M73.9162 12.6134L8.41035 31.0894C7.85926 31.2449 7.36875 31.5648 7.00436 32.0065C6.63997 32.4482 6.41907 32.9905 6.37118 33.5611C6.3233 34.1317 6.4507 34.7033 6.73637 35.1995C7.02204 35.6958 7.45237 36.093 7.96984 36.3381L38.0674 50.5948C38.6544 50.8729 39.1271 51.3456 39.4052 51.9326L53.6619 82.0301C53.907 82.5476 54.3042 82.9779 54.8005 83.2636C55.2967 83.5493 55.8683 83.6767 56.4389 83.6288C57.0095 83.5809 57.5518 83.36 57.9935 82.9956C58.4352 82.6312 58.7551 82.1407 58.9106 81.5896L77.3866 16.0838C77.5223 15.6026 77.5273 15.094 77.4011 14.6102C77.2748 14.1265 77.0219 13.6851 76.6684 13.3316C76.3149 12.9781 75.8735 12.7252 75.3898 12.5989C74.906 12.4727 74.3974 12.4777 73.9162 12.6134Z" stroke="#355DFB" stroke-linecap="round" stroke-linejoin="round"/>
<path d="M38.9746 51.0249L54.8845 35.115" stroke="#355DFB" stroke-linecap="round" stroke-linejoin="round"/>
</svg>
