<svg width="90" height="90" viewBox="0 0 90 90" fill="none" xmlns="http://www.w3.org/2000/svg">
<path opacity="0.2" d="M11.2471 36.5625H28.1221V73.125H11.2471C10.5011 73.125 9.78578 72.8287 9.25833 72.3012C8.73089 71.7738 8.43457 71.0584 8.43457 70.3125V39.375C8.43457 38.6291 8.73089 37.9137 9.25833 37.3863C9.78578 36.8588 10.5011 36.5625 11.2471 36.5625Z" fill="#355DFB"/>
<path d="M11.2471 36.5625H28.1221V73.125H11.2471C10.5011 73.125 9.78578 72.8287 9.25833 72.3012C8.73089 71.7738 8.43457 71.0584 8.43457 70.3125V39.375C8.43457 38.6291 8.73089 37.9137 9.25833 37.3863C9.78578 36.8588 10.5011 36.5625 11.2471 36.5625V36.5625Z" stroke="#355DFB" stroke-linecap="round" stroke-linejoin="round"/>
<path d="M28.1221 36.5625L42.1846 8.4375C43.6619 8.4375 45.1248 8.72849 46.4898 9.29386C47.8547 9.85922 49.0949 10.6879 50.1395 11.7325C51.1842 12.7772 52.0129 14.0174 52.5782 15.3823C53.1436 16.7472 53.4346 18.2101 53.4346 19.6875V28.125H75.1877C75.9853 28.125 76.7737 28.2946 77.5008 28.6226C78.2278 28.9506 78.8768 29.4294 79.4046 30.0274C79.9325 30.6253 80.3271 31.3286 80.5624 32.0907C80.7976 32.8528 80.8682 33.6563 80.7692 34.4477L76.5505 68.1977C76.3804 69.5581 75.7194 70.8096 74.6916 71.7169C73.6637 72.6243 72.3399 73.125 70.9689 73.125H28.1221" stroke="#355DFB" stroke-linecap="round" stroke-linejoin="round"/>
</svg>
