<svg width="52" height="44" viewBox="0 0 52 44" fill="none" xmlns="http://www.w3.org/2000/svg">
<path opacity="0.2" d="M47 1H33V43H47V1Z" fill="#355DFB"/>
<path fill-rule="evenodd" clip-rule="evenodd" d="M0.5 43C0.5 42.7239 0.723858 42.5 1 42.5H51C51.2761 42.5 51.5 42.7239 51.5 43C51.5 43.2761 51.2761 43.5 51 43.5H1C0.723858 43.5 0.5 43.2761 0.5 43Z" fill="#355DFB"/>
<path fill-rule="evenodd" clip-rule="evenodd" d="M18.5 13C18.5 12.7239 18.7239 12.5 19 12.5H33C33.2761 12.5 33.5 12.7239 33.5 13C33.5 13.2761 33.2761 13.5 33 13.5H19.5V43C19.5 43.2761 19.2761 43.5 19 43.5C18.7239 43.5 18.5 43.2761 18.5 43V13Z" fill="#355DFB"/>
<path fill-rule="evenodd" clip-rule="evenodd" d="M32.5 1C32.5 0.723858 32.7239 0.5 33 0.5H47C47.2761 0.5 47.5 0.723858 47.5 1V43C47.5 43.2761 47.2761 43.5 47 43.5H33C32.7239 43.5 32.5 43.2761 32.5 43V1ZM33.5 1.5V42.5H46.5V1.5H33.5Z" fill="#355DFB"/>
<path fill-rule="evenodd" clip-rule="evenodd" d="M4.5 25C4.5 24.7239 4.72386 24.5 5 24.5H19C19.2761 24.5 19.5 24.7239 19.5 25C19.5 25.2761 19.2761 25.5 19 25.5H5.5V43C5.5 43.2761 5.27614 43.5 5 43.5C4.72386 43.5 4.5 43.2761 4.5 43V25Z" fill="#355DFB"/>
</svg>
