<svg width="48" height="42" viewBox="0 0 48 42" fill="none" xmlns="http://www.w3.org/2000/svg">
<path opacity="0.2" d="M1 37C1 38.0609 1.42143 39.0783 2.17157 39.8284C2.92172 40.5786 3.93913 41 5 41H45C45.5304 41 46.0391 40.7893 46.4142 40.4142C46.7893 40.0391 47 39.5304 47 39V11C47 10.4696 46.7893 9.96086 46.4142 9.58579C46.0391 9.21071 45.5304 9 45 9H5C3.93913 9 2.92172 8.57857 2.17157 7.82843C1.42143 7.07828 1 6.06087 1 5V37Z" fill="#355DFB"/>
<path fill-rule="evenodd" clip-rule="evenodd" d="M5 1.5C4.07174 1.5 3.1815 1.86875 2.52513 2.52513C1.86875 3.1815 1.5 4.07174 1.5 5C1.5 5.92826 1.86875 6.8185 2.52513 7.47487C3.1815 8.13125 4.07174 8.5 5 8.5H45C45.663 8.5 46.2989 8.76339 46.7678 9.23223C47.2366 9.70107 47.5 10.337 47.5 11V39C47.5 39.663 47.2366 40.2989 46.7678 40.7678C46.2989 41.2366 45.663 41.5 45 41.5H5C3.80653 41.5 2.66193 41.0259 1.81802 40.182C0.974106 39.3381 0.5 38.1935 0.5 37V5C0.5 3.80653 0.974106 2.66193 1.81802 1.81802C2.66193 0.974106 3.80653 0.5 5 0.5H39C39.2761 0.5 39.5 0.723858 39.5 1C39.5 1.27614 39.2761 1.5 39 1.5H5ZM1.5 7.82845V37C1.5 37.9283 1.86875 38.8185 2.52513 39.4749C3.1815 40.1313 4.07174 40.5 5 40.5H45C45.3978 40.5 45.7794 40.342 46.0607 40.0607C46.342 39.7794 46.5 39.3978 46.5 39V11C46.5 10.6022 46.342 10.2206 46.0607 9.93934C45.7794 9.65804 45.3978 9.5 45 9.5H5C3.80653 9.5 2.66193 9.02589 1.81802 8.18198C1.70534 8.0693 1.59925 7.95125 1.5 7.82845Z" fill="#355DFB"/>
<path fill-rule="evenodd" clip-rule="evenodd" d="M36 22.5C34.6193 22.5 33.5 23.6193 33.5 25C33.5 26.3807 34.6193 27.5 36 27.5C37.3807 27.5 38.5 26.3807 38.5 25C38.5 23.6193 37.3807 22.5 36 22.5ZM32.5 25C32.5 23.067 34.067 21.5 36 21.5C37.933 21.5 39.5 23.067 39.5 25C39.5 26.933 37.933 28.5 36 28.5C34.067 28.5 32.5 26.933 32.5 25Z" fill="#355DFB"/>
</svg>
