<svg width="54" height="38" viewBox="0 0 54 38" fill="none" xmlns="http://www.w3.org/2000/svg">
<path opacity="0.2" d="M27 25C41.3594 25 53 19.6274 53 13C53 6.37258 41.3594 1 27 1C12.6406 1 1 6.37258 1 13C1 19.6274 12.6406 25 27 25Z" fill="#355DFB"/>
<path fill-rule="evenodd" clip-rule="evenodd" d="M8.82475 4.9687C4.15663 7.12322 1.5 9.99888 1.5 13C1.5 16.0011 4.15663 18.8768 8.82475 21.0313C13.4504 23.1662 19.8758 24.5 27 24.5C34.1242 24.5 40.5496 23.1662 45.1752 21.0313C49.8434 18.8768 52.5 16.0011 52.5 13C52.5 9.99888 49.8434 7.12322 45.1752 4.9687C40.5496 2.83378 34.1242 1.5 27 1.5C19.8758 1.5 13.4504 2.83378 8.82475 4.9687ZM8.40569 4.06074C13.1902 1.85251 19.7648 0.5 27 0.5C34.2352 0.5 40.8098 1.85251 45.5943 4.06074C50.3363 6.24937 53.5 9.37371 53.5 13C53.5 16.6263 50.3363 19.7506 45.5943 21.9393C40.8098 24.1475 34.2352 25.5 27 25.5C19.7648 25.5 13.1902 24.1475 8.40569 21.9393C3.66367 19.7506 0.5 16.6263 0.5 13C0.5 9.37371 3.66367 6.24937 8.40569 4.06074Z" fill="#355DFB"/>
<path fill-rule="evenodd" clip-rule="evenodd" d="M27 24.5C27.2761 24.5 27.5 24.7239 27.5 25V37C27.5 37.2761 27.2761 37.5 27 37.5C26.7239 37.5 26.5 37.2761 26.5 37V25C26.5 24.7239 26.7239 24.5 27 24.5Z" fill="#355DFB"/>
<path fill-rule="evenodd" clip-rule="evenodd" d="M1 12.5C1.27614 12.5 1.5 12.7239 1.5 13V25C1.5 27.7091 3.7775 30.5797 8.22361 32.8028C12.6376 35.0098 19.0567 36.5 27 36.5C34.9433 36.5 41.3624 35.0098 45.7764 32.8028C50.2225 30.5797 52.5 27.7091 52.5 25V13C52.5 12.7239 52.7239 12.5 53 12.5C53.2761 12.5 53.5 12.7239 53.5 13V25C53.5 28.2909 50.7775 31.4203 46.2236 33.6972C41.6376 35.9902 35.0567 37.5 27 37.5C18.9433 37.5 12.3624 35.9902 7.77639 33.6972C3.2225 31.4203 0.5 28.2909 0.5 25V13C0.5 12.7239 0.723858 12.5 1 12.5Z" fill="#355DFB"/>
<path fill-rule="evenodd" clip-rule="evenodd" d="M43 22.0269C43.2761 22.0269 43.5 22.2507 43.5 22.5269V34.527C43.5 34.8032 43.2761 35.027 43 35.027C42.7239 35.027 42.5 34.8032 42.5 34.527V22.5269C42.5 22.2507 42.7239 22.0269 43 22.0269Z" fill="#355DFB"/>
<path fill-rule="evenodd" clip-rule="evenodd" d="M11 22.0269C11.2761 22.0269 11.5 22.2507 11.5 22.5269V34.527C11.5 34.8031 11.2761 35.027 11 35.027C10.7239 35.027 10.5 34.8031 10.5 34.527V22.5269C10.5 22.2507 10.7239 22.0269 11 22.0269Z" fill="#355DFB"/>
</svg>
