<svg width="46" height="48" viewBox="0 0 46 48" fill="none" xmlns="http://www.w3.org/2000/svg">
<path opacity="0.2" d="M41.6014 32.0209C36.2472 42.0712 26.1912 45.9549 23.614 46.8093C23.2161 46.9463 22.7838 46.9463 22.3859 46.8093C19.8088 45.9549 9.75259 42.0712 4.39844 32.0207L4.39922 32.0205L23 19L41.6005 32.0204L41.6014 32.0209Z" fill="#355DFB"/>
<path fill-rule="evenodd" clip-rule="evenodd" d="M3 1.5C2.60218 1.5 2.22065 1.65804 1.93934 1.93934C1.65804 2.22065 1.5 2.60218 1.5 3V17.6667C1.5 38.3135 19.0105 45.1634 22.5433 46.3347L22.5487 46.3365L22.5487 46.3365C22.8411 46.4372 23.1589 46.4372 23.4513 46.3365L23.4567 46.3347L23.4567 46.3347C26.9895 45.1634 44.5 38.3135 44.5 17.6667V3C44.5 2.60217 44.342 2.22064 44.0607 1.93934C43.7794 1.65804 43.3978 1.5 43 1.5H3ZM1.23223 1.23223C1.70107 0.763393 2.33696 0.5 3 0.5H43C43.663 0.5 44.2989 0.763392 44.7678 1.23223C45.2366 1.70107 45.5 2.33696 45.5 3V17.6667C45.5 39.0229 27.3653 46.0919 23.7737 47.2831C23.2722 47.455 22.7278 47.455 22.2263 47.2831C18.6347 46.0919 0.5 39.0229 0.5 17.6667V3C0.5 2.33696 0.763393 1.70107 1.23223 1.23223Z" fill="#355DFB"/>
<path fill-rule="evenodd" clip-rule="evenodd" d="M22.7135 18.5904C22.8856 18.4699 23.1148 18.4699 23.2869 18.5904L41.8874 31.6109C42.1137 31.7692 42.1687 32.081 42.0103 32.3072C41.852 32.5335 41.5402 32.5885 41.314 32.4301L23.0002 19.6103L4.68619 32.4301C4.45996 32.5885 4.1482 32.5335 3.98984 32.3072C3.83148 32.081 3.8865 31.7692 4.11273 31.6109L22.7135 18.5904Z" fill="#355DFB"/>
</svg>
