<svg width="90" height="90" viewBox="0 0 90 90" fill="none" xmlns="http://www.w3.org/2000/svg">
<path opacity="0.2" d="M45 61.875C54.3198 61.875 61.875 54.3198 61.875 45C61.875 35.6802 54.3198 28.125 45 28.125C35.6802 28.125 28.125 35.6802 28.125 45C28.125 54.3198 35.6802 61.875 45 61.875Z" fill="white"/>
<path d="M45 45L78.75 11.25" stroke="white" stroke-linecap="round" stroke-linejoin="round"/>
<path d="M68.8647 21.1351C62.8862 15.1684 54.8861 11.663 46.4469 11.3123C38.0077 10.9616 29.7442 13.7912 23.2913 19.2412C16.8384 24.6913 12.6661 32.3649 11.5999 40.7438C10.5337 49.1227 12.6511 57.5966 17.5334 64.4891C22.4157 71.3816 29.7071 76.1906 37.9652 77.9646C46.2233 79.7387 54.8464 78.3486 62.1287 74.0694C69.411 69.7902 74.8219 62.9335 77.2909 54.856C79.76 46.7784 79.1074 38.0684 75.4621 30.449" stroke="white" stroke-linecap="round" stroke-linejoin="round"/>
<path d="M56.9324 33.0677C54.1426 30.2779 50.4634 28.5539 46.5343 28.1954C42.6052 27.8368 38.6747 28.8662 35.4259 31.1049C32.1771 33.3435 29.8154 36.6497 28.7513 40.4489C27.6872 44.2481 27.988 48.3 29.6013 51.9005C31.2147 55.5009 34.0386 58.4222 37.5823 60.1567C41.126 61.8911 45.1655 62.329 48.9985 61.3943C52.8316 60.4595 56.216 58.2112 58.5634 55.0402C60.9108 51.8691 62.0729 47.9757 61.8477 44.0368" stroke="white" stroke-linecap="round" stroke-linejoin="round"/>
</svg>
