<svg width="1245" height="174" viewBox="0 0 1245 174" fill="none" xmlns="http://www.w3.org/2000/svg">
<g clip-path="url(#clip0_122_1441)">
<path d="M3.58679 170.725L3.32202 171.5H1098.14C1121.44 171.338 1144.2 164.453 1163.66 151.678C1183.12 138.901 1198.45 120.781 1207.79 99.5087L1207.8 99.4735L1207.82 99.4387C1208.43 98.1609 1210.89 91.3527 1214.33 81.5582C1217.73 71.8737 1222.01 59.4951 1226.2 47.2912C1230.39 35.0884 1234.5 23.0645 1237.56 14.091C1239.09 9.6043 1240.36 5.8804 1241.24 3.27823C1241.34 3.00645 1241.43 2.7469 1241.51 2.5H146.627C123.334 2.67113 100.587 9.5537 81.1321 22.3168C61.6775 35.0797 46.3455 53.1775 36.9823 74.4268C35.7671 77.2528 27.1104 102.216 18.6835 126.703C14.4824 138.91 10.3594 150.936 7.28662 159.911C5.75024 164.398 4.47656 168.123 3.58679 170.725Z" stroke="#E1F1FF" stroke-width="5"/>
</g>
<defs>
<clipPath id="clip0_122_1441">
<rect width="1245" height="174" fill="white" transform="matrix(-1 0 0 1 1245 0)"/>
</clipPath>
</defs>
</svg>
