<svg width="1001" height="98" viewBox="0 0 1001 98" fill="none" xmlns="http://www.w3.org/2000/svg">
<path d="M981.896 43.3328C975.42 58.2745 964.818 71.0014 951.368 79.9815C937.918 88.9615 922.194 93.812 906.086 93.9491H94.9141C78.8067 93.812 63.0821 88.9615 49.6323 79.9815C36.1825 71.0014 25.5807 58.2745 19.1039 43.3328C18.175 41.205 11.0264 20.4593 4.24104 0H0C6.46223 19.3136 14.3383 42.5553 15.3884 45.0104C22.1262 60.6752 33.1919 74.0315 47.2519 83.4697C61.3119 92.9079 77.7667 98.0251 94.632 98.2046H814.121C844.493 98.2046 853.944 98.2046 857.054 97.8772V98.2046H906.086C922.994 98.0546 939.498 92.9529 953.608 83.5145C967.719 74.076 978.834 60.704 985.612 45.0104C986.662 42.5962 994.538 19.3545 1001 0H996.881C989.853 20.4593 982.825 41.205 981.896 43.3328Z" fill="#E1F1FF"/>
</svg>
