<svg width="212" height="289" viewBox="0 0 212 289" fill="none" xmlns="http://www.w3.org/2000/svg">
<g clip-path="url(#clip0_122_1460)">
<path d="M62.0761 148.968V37.8307C62.0761 37.8307 28.2967 49.3803 26.1383 50.3391C18.3945 53.7621 11.7985 59.3767 7.14832 66.5041C2.49812 73.6315 -0.00724246 81.9664 -0.0649414 90.501C-0.0649414 90.501 -0.0649414 180.348 -0.0649414 180.348C0.00499626 188.877 2.51569 197.203 7.16466 204.325C11.8136 211.447 18.4027 217.06 26.1383 220.488C28.2967 221.403 62.0112 232.953 62.0112 232.953V189.5H45.6073L62.0761 148.968Z" fill="#60AAFB"/>
<path d="M137.319 75.9001V0C137.319 0 103.496 11.5495 101.446 12.4648C93.7021 15.8878 87.1061 21.5024 82.4559 28.6298C77.8057 35.7572 75.3004 44.0921 75.2427 52.6267C75.2427 52.6267 75.2427 98.3891 75.2427 149.512L91.4524 189.5H75.2427V288.978C75.2427 288.978 109.065 277.45 111.116 276.535C118.863 273.111 125.461 267.493 130.111 260.361C134.762 253.229 137.265 244.89 137.319 236.352C137.319 236.352 137.319 176.425 137.319 116.955H120.678L137.319 75.9001Z" fill="#355DFB"/>
<path d="M212 90.4574C211.94 81.9375 209.44 73.6172 204.802 66.499C200.164 59.3809 193.587 53.7688 185.862 50.3391C183.703 49.4238 149.989 37.8743 149.989 37.8743V76.2493L166.501 117H149.989V232.953C149.989 232.953 183.79 221.403 185.862 220.488C193.604 217.057 200.197 211.437 204.847 204.307C209.496 197.177 212.003 188.841 212.065 180.304C212.065 180.304 212 90.5664 212 90.4574Z" fill="#0000DE"/>
</g>
<defs>
<clipPath id="clip0_122_1460">
<rect width="212" height="289" fill="white"/>
</clipPath>
</defs>
</svg>
