<svg width="44" height="44" viewBox="0 0 44 44" fill="none" xmlns="http://www.w3.org/2000/svg">
<path fill-rule="evenodd" clip-rule="evenodd" d="M22 6C13.1634 6 6 13.1634 6 22C6 30.8366 13.1634 38 22 38C30.8366 38 38 30.8366 38 22C38 13.1634 30.8366 6 22 6ZM5 22C5 12.6112 12.6112 5 22 5C31.3888 5 39 12.6112 39 22C39 31.3888 31.3888 39 22 39C12.6112 39 5 31.3888 5 22Z" fill="#0000DE"/>
<path fill-rule="evenodd" clip-rule="evenodd" d="M22 5C22.2761 5 22.5 5.22386 22.5 5.5V38.5C22.5 38.7761 22.2761 39 22 39C21.7239 39 21.5 38.7761 21.5 38.5V5.5C21.5 5.22386 21.7239 5 22 5Z" fill="#0000DE"/>
<path fill-rule="evenodd" clip-rule="evenodd" d="M21.6464 7.89742C21.8417 7.70216 22.1583 7.70216 22.3536 7.89742L38.6569 24.2008C38.8522 24.396 38.8522 24.7126 38.6569 24.9079C38.4616 25.1031 38.1451 25.1031 37.9498 24.9079L21.6464 8.60453C21.4512 8.40927 21.4512 8.09269 21.6464 7.89742Z" fill="#0000DE"/>
<path fill-rule="evenodd" clip-rule="evenodd" d="M21.6464 17.5224C21.8417 17.3272 22.1583 17.3272 22.3536 17.5224L35.8996 31.0685C36.0949 31.2638 36.0949 31.5804 35.8996 31.7756C35.7044 31.9709 35.3878 31.9709 35.1925 31.7756L21.6464 18.2295C21.4512 18.0343 21.4512 17.7177 21.6464 17.5224Z" fill="#0000DE"/>
<path fill-rule="evenodd" clip-rule="evenodd" d="M21.6464 27.1474C21.8417 26.9522 22.1583 26.9522 22.3536 27.1474L30.943 35.7369C31.1383 35.9322 31.1383 36.2488 30.943 36.444C30.7478 36.6393 30.4312 36.6393 30.2359 36.444L21.6464 27.8545C21.4512 27.6593 21.4512 27.3427 21.6464 27.1474Z" fill="#0000DE"/>
</svg>
